<svg xmlns="http://www.w3.org/2000/svg" viewBox="0 0 200 200">
  <rect width="200" height="200" fill="#080808"/>
  <circle cx="100" cy="100" r="93" fill="none" stroke="#c9a84c" stroke-width="2" opacity="0.7"/>
  <circle cx="100" cy="100" r="80" fill="none" stroke="#c9a84c" stroke-width="0.8" opacity="0.4"/>
  <circle cx="100" cy="100" r="66" fill="none" stroke="#c9a84c" stroke-width="1" opacity="0.5"/>
  <!-- Sole di Solaire -->
  <g transform="translate(100,100)" fill="#c9a84c" opacity="0.95">
    <polygon points="0,-47 6,-17 0,-9 -6,-17"/>
    <polygon points="0,-47 6,-17 0,-9 -6,-17" transform="rotate(45)"/>
    <polygon points="0,-47 6,-17 0,-9 -6,-17" transform="rotate(90)"/>
    <polygon points="0,-47 6,-17 0,-9 -6,-17" transform="rotate(135)"/>
    <polygon points="0,-47 6,-17 0,-9 -6,-17" transform="rotate(180)"/>
    <polygon points="0,-47 6,-17 0,-9 -6,-17" transform="rotate(225)"/>
    <polygon points="0,-47 6,-17 0,-9 -6,-17" transform="rotate(270)"/>
    <polygon points="0,-47 6,-17 0,-9 -6,-17" transform="rotate(315)"/>
    <circle r="14"/>
  </g>
</svg>
